<?xml version="1.0" encoding="UTF-8" standalone="no"?>
<svg viewBox="0 0 504 504" xmlns="http://www.w3.org/2000/svg">
<path d="m186.00002,482.89923c-29.179-1.52928-57.0345-8.49846-78.34572-19.60135-10.415-5.42609-13.65429-8.38738-13.65429-12.48245 0-1.38112 4.27144-12.31792 9.4921-24.30401l9.4921-21.79291-8.92349-20.48288-8.92349-20.48291-18.23878-22.32822c-10.03133-12.28053-18.6971-22.92664-19.25728-23.65802s-5.77477-39.34468-11.58799-85.80731l-10.5695-84.47751-6.61239-2.22527c-8.07993-2.71915-13.14943-6.45534-17.01668-12.54123-6.82615-10.74231-7.47985-22.34396-1.89785-33.68261 5.71579-11.61041 16.18361-17.81899 30.04325-17.81899s24.32746,6.20858 30.04325,17.81899c6.62465,13.45658 4.66812,25.6446-6.43301,40.0739-.57742.75052 9.2491,21.99814 27.99206,60.52649l28.88182,59.36996 4.19116-72.95331c2.30514-40.12433 4.22122-74.40667 4.25794-76.183 .05687-2.75021-.48993-3.51664-3.68322-5.1627-6.73242-3.47037-12.0268-8.9088-15.458-15.87857-8.40359-17.0701-1.02115-36.41728 17.208-45.09711 11.27982-5.37089 25.12804-2.93329 35.708,6.28542 2.49368,2.17284 5.54915,6.39084 7.5,10.35359 2.84059,5.77005 3.292,7.72119 3.292,14.22905s-.45141,8.459-3.292,14.22905c-1.93445,3.92943-4.95671,8.11194-7.32887,10.14242l-4.03689,3.45541 24.82889,72.07108c13.65588,39.63908 25.07391,72.07804 25.3734,72.08655s6.85337-36.316 14.56417-80.72116l14.01963-80.73665-4.29248-2.84322c-9.56564-6.33602-14.81922-16.1509-14.82929-27.70451-.01174-13.44493 7.41108-24.61785 20.49344-30.84703 7.78596-3.70729 18.21403-3.70729 26,0 8.15084,3.88103 13.44958,9.00456 17.208,16.63901 2.84145,5.77179 3.2911,7.71634 3.28544,14.20802-.01006,11.55361-5.26365,21.36849-14.82929,27.70451l-4.29249,2.84322 14.01963,80.73665c7.71081,44.40516 14.26469,80.72968 14.56418,80.72116s11.71752-32.44747 25.3734-72.08655l24.82887-72.07108-4.03687-3.45541c-2.37216-2.03048-5.39442-6.21299-7.32887-10.14242-8.4036-17.0701-1.02115-36.41728 17.208-45.09711 7.78598-3.70729 18.21403-3.70729 26,0 8.15084,3.88103 13.44958,9.00456 17.208,16.63901 2.84059,5.77005 3.292,7.72119 3.292,14.22905s-.45141,8.459-3.292,14.22905c-3.4312,6.96977-8.72558,12.4082-15.458,15.87857-3.19328,1.64606-3.74009,2.41249-3.68322,5.1627 .03671,1.77633 1.9528,36.05867 4.25794,76.183l4.19117,72.95331 28.88181-59.36997c18.74296-38.52834 28.56948-59.77596 27.99206-60.52648-11.10113-14.4293-13.05766-26.61732-6.43301-40.0739 5.71579-11.61041 16.18361-17.81899 30.04325-17.81899s24.32746,6.20858 30.04325,17.81899c5.58199,11.33865 4.9283,22.9403-1.89785,33.68261-3.86726,6.08589-8.93675,9.82208-17.01668,12.54123l-6.6124,2.22527-10.56949,84.47751c-5.81322,46.46263-11.02782,85.07592-11.58799,85.80731s-9.22595,11.37749-19.25728,23.65801l-18.23878,22.32823-8.92349,20.48291-8.92349,20.48288 9.49209,21.7929c5.22067,11.9861 9.49211,22.9229 9.49211,24.30402 1e-005,4.09507-3.23929,7.05636-13.65429,12.48245-16.51419,8.60369-36.60573,14.6949-59.28834,17.97461-8.51644,1.2314-23.60627,1.56405-78.05737,1.72075-37.12499.10686-69.975.06454-73-.094l1e-005-1e-005z"/>
<path d="m260.07834,68.32247c5.18277-3.49267 7.92167-8.23847 7.92167-13.7262 1e-005-12.20673-14.26556-20.33902-24.07832-13.7262-5.18278,3.49267-7.92168,8.23847-7.92168,13.7262-1e-005,12.20673 14.26556,20.33902 24.07832,13.7262h1e-005z" fill="#fff"/>
<path d="m372.07834,88.32247c5.18277-3.49267 7.92167-8.23847 7.92167-13.7262s-2.7389-10.23353-7.92168-13.7262c-9.81277-6.61282-24.07832,1.51947-24.07832,13.7262s14.26556,20.33902 24.07832,13.7262h1e-005z" fill="#fff"/>
<path d="m148.07832,88.32247c10.64-7.17029 10.64-20.28211 1e-005-27.4524-9.81275-6.61282-24.07832,1.51947-24.07832,13.7262s14.26556,20.33902 24.07832,13.7262h-1e-005z" fill="#fff"/>
<path d="m471.98007,127.84472c5.17509-2.60006 8.01994-7.47694 8.01994-13.74845 1e-005-9.22714-6.4733-15.49689-16-15.49689s-16,6.26975-16,15.49689 6.4733,15.49689 16,15.49689c2.47501,1e-005 6.06603-.7868 7.98007-1.74844h-1e-005z" fill="#fff"/>
<path d="m47.98008,127.84472c10.82131-5.43682 10.82131-22.06008 0-27.4969-4.45188-2.2367-11.50826-2.2367-15.96014,0-10.82131,5.43682-10.82131,22.06008 0,27.4969 1.91404.96164 5.50507,1.74844 7.98007,1.74844s6.06603-.7868 7.98007-1.74844z" fill="#fff"/>
<path d="m230.91696,268.00552c3.62068-1.9749 8.60805-5.27727 11.08305-7.33861 8.96579-7.46726 11.33374-7.55811 19.13464-.73408 4.44962,3.89241 18.59148,12.33342 19.29636,11.51762 .47199-.54625-27.86355-162.84643-28.431-162.84699-.27501-.00027-6.7535,36.1105-14.39667,80.24616s-14.10381,80.80915-14.35698,81.49665c-.70957,1.92682.55311,1.54152 7.6706-2.34074v-1e-005z" fill="#fff"/>
<path d="m366.52866,274.84628c-.32586-3.71251-2.37714-38.92501-4.5584-78.25001-2.18125-39.325-4.0794-72.68895-4.21809-74.1421-.14627-1.53258-11.33911,29.54276-26.65361,74-14.52081,42.15316-26.63394,77.27625-26.91809,78.05132-.8598,2.34524 12.98308.49773 22.79174-3.04185 12.5091-4.51407 14.33763-4.63362 18.78254-1.22801 3.71194,2.84403 19.00737,11.27567 20.55581,11.33144 .44582.01605.54395-3.0083.21809-6.7208l1e-005,1e-005z" fill="#fff"/>
<path d="m145.27496,277.9758c3.97378-1.99124 9.37537-5.18898 12.00354-7.10607 5.60826-4.09089 6.87243-4.05288 19.74931.59391 9.80865,3.53957 23.65153,5.38709 22.79174,3.04185-.28415-.77507-12.39729-35.89817-26.91809-78.05132-15.3145-44.45723-26.50734-75.53258-26.65361-74-.13869,1.45315-2.03683,34.8171-4.21809,74.1421-2.18125,39.325-4.23254,74.5375-4.55839,78.25s-.32898,6.75-.00695,6.75 3.83678-1.62921 7.81055-3.62046l-1e-005-1e-005z" fill="#fff"/>
<path d="m439.93741,232.09686c4.40034-35.14275 7.86884-64.02768 7.70779-64.18873-.25193-.25193-55.91587,113.73017-57.43052,117.59949-.46629,1.19115 1.07304,1.28429 9.86643.59695 17.73098-1.38598 16.72991-1.57855 24.47035,4.70731 3.81411,3.09734 7.03612,5.53015 7.16005,5.40623s3.82559-28.97849 8.22591-64.12124l-1e-005-1e-005z" fill="#fff"/>
<path d="m86.55007,285.77475c1.98607-1.04124 3.98553-1.09426 9.42688-.25001 9.70507,1.50578 18.37325,1.41862 17.74648-.17847-1.48833-3.79242-57.12397-117.68278-57.36869-117.43806-.1611.16111 3.28775,28.84432 7.6641,63.74048s7.96245,63.81494 7.96909,64.26393 2.71868-1.35101 6.02675-4 7.14899-5.41104 8.53539-6.13788v1e-005z" fill="#fff"/>
<path d="m113.07486,346.04248c90.15901-31.00898 187.69544-31.00676 277.86884.00631 4.09404,1.40804 7.76468,2.21975 8.15698,1.80379 2.42631-2.57264 26.85022-32.848 26.82873-33.25631-.01448-.27501-3.22617-3.00814-7.1371-6.07364l-7.11079-5.57362-5.59076.91885c-17.34128,2.85015-42.84693-2.75009-61.3822-13.47759l-6.79145-3.93064-7.70855,2.52999c-25.17215,8.26168-50.4386,4.75712-72.95855-10.11965l-5.24999-3.46818-5.25,3.46817c-12.75277,8.42453-27.44203,13.42718-42.29917,14.40562-10.35512.68197-19.35706-.57645-30.65939-4.28595l-7.70854-2.53-6.79146,3.93063c-18.53527,10.72751-44.04092,16.32775-61.38221,13.4776l-5.59075-.91885-7.10702,5.57363c-3.90886,3.06549-7.01802,5.8919-6.90924,6.2809 .17058.61002 26.90822,33.79273 27.22917,33.79273 .06507-1e-005 3.45962-1.1492 7.54346-2.55378v-1e-005z" fill="#fff"/>
<path d="m151.19949,384.75821c66.18096-21.4214 135.42008-21.4214 201.60104-1e-005 8.41528,2.72384 17.26672,5.79527 19.66984,6.82536 3.16603,1.35712 4.5066,1.54792 4.86783.69281 .27419-.64906 3.17698-7.30999 6.45065-14.80207l5.95212-13.62197-3.62049-1.15806c-66.97416-21.4224-125.78023-26.95518-191.62047-18.02864-24.82779,3.36613-47.34267,8.66383-76.62048,18.02865l-3.62048,1.15805 5.95212,13.62197c3.27367,7.49208 6.17646,14.15301 6.45065,14.80207 .36123.85511 1.7018.66431 4.86783-.69281 2.40312-1.03009 11.25455-4.10151 19.66984-6.82536v1e-005z" fill="#fff"/>
<path d="m151.50002,426.08273c19.55104-4.82782 40.85879-8.57615 60.49999-10.6428 16.28596-1.71363 63.71403-1.71362 80,0 27.31952,2.87456 65.82433,10.76071 85.75,17.56239 3.98751,1.36114 7.25,2.29327 7.25,2.07139s-2.19138-5.48256-4.86974-11.69042c-5.79493-13.4314-4.8666-12.78195-30.35478-21.23582-17.34451-5.75278-37.26583-10.23493-58.77548-13.22401-17.52605-2.43551-60.47394-2.43551-78,0-21.50966,2.98908-41.43096,7.47122-58.77548,13.22401-25.48818,8.45388-24.55986,7.80443-30.35478,21.23582-2.67836,6.20785-4.86974,11.46855-4.86974,11.69042s3.2625-.71025 7.25-2.07139 15.35-4.47497 25.25-6.9196l1e-005,1e-005z" fill="#fff"/>
<path d="m337,463.27875c13.85528-2.00602 22.50438-4.02252 33.86511-7.89551l9.36511-3.19266-6.86511-2.32602c-11.19461-3.79296-37.78197-10.04435-53.8651-12.66511-24.90151-4.05774-38.42936-5.07478-67.5-5.07478s-42.59848,1.01705-67.5,5.07478c-16.08314,2.62075-42.67049,8.87215-53.8651,12.6651l-6.8651,2.32603 9.36509,3.20978c15.1476,5.19169 33.45814,8.48175 52.86511,9.49888 3.02499.15855 35.875.20085 73,.094 54.33394-.15635 69.54806-.49078 78-1.71448l-1e-005-1e-005z" fill="#fff"/>
</svg>
